<svg xmlns="http://www.w3.org/2000/svg" height="300px" width="300px" fill="#FFFFFF" viewBox="0 0 128 128" x="0px" y="0px"><g><path d="M82.148,65.277c-.521,0-.9-1.055-1.136-1.383-.316-.48-.837-.837-1.055-1.384-.466-1.123.41-2.37.931-3.3a14.922,14.922,0,0,1-2.6-.124c-.48-.054-1.521,2.165-1.535,2.192-.89,1.562-3.219,2.807-4.822,3.411-1.027.4-6.094,1.7-6.724,2.74-1.657,2.67-6.9.739-7.4,2.258.3.329.6.658.932.988.6.6.876,1.944,1.889,1.355a11,11,0,0,1,4.987-1.712c1.37,0,1.37,2.466,0,2.466-1.316,0-2.576.78-3.973,1.533A5.741,5.741,0,0,1,64.177,75,38.527,38.527,0,0,1,69.4,78.892a1.075,1.075,0,0,1,.356.7,9.236,9.236,0,0,1,3.849,1C75.45,81.7,78.4,82.631,78.71,85.1a7.225,7.225,0,0,1-.123,2.506,1.964,1.964,0,0,1,.548.933,9.109,9.109,0,0,1,.2,2.355,6.565,6.565,0,0,1-1.835,4.959A37.907,37.907,0,0,1,73.889,99a52.322,52.322,0,0,1,10.78,1.767c.068.014.15.042.233.055s.149-.041.232-.028c1.562.124,3.055.439,4.616.535a14.024,14.024,0,0,1,3.712.466c1.26.465,3.959,1.164,3.589,3.026a3.105,3.105,0,0,1-1.548,2.1c3.506,3.971-3.274,10.642-7.137,11.533-.452.11-.931.191-1.4.287a1.17,1.17,0,0,1-.535.96c-.506.355-.37,1.218-.766,1.7a3.155,3.155,0,0,1-1.342.959c-1.453.535-2.577,1.589-4.193,1.616a14.051,14.051,0,0,1-4.548-.328c-1.67-.52-1.245-2.658-3.108-2.959a1.036,1.036,0,0,1-.644-.37c-4.383.1-8.766-.055-13.067-.315-2.6-.164-5.219-.164-7.836-.164a.975.975,0,0,1-.615.891c-1.384.643-1.192,2.039-2.4,2.739-.9.534-2.48.163-3.48.178-1.232.013-3.04.082-4.013-.878a17.005,17.005,0,0,0-2.657-2.382,1.236,1.236,0,0,1-.548-.823,15.6,15.6,0,0,1-7.123-2.122c-2.931-1.808-5.177-8.341-2.588-11.109a2.949,2.949,0,0,1-1.206-1.6c-.533-1.958.836-3.492,2.589-4.026a35.589,35.589,0,0,1,6.931-1.617,1,1,0,0,1,.959.425,55.53,55.53,0,0,1,11.026-.6.93.93,0,0,1,.205.055,11.825,11.825,0,0,1,4.164-3.684c1.63-.863,3.329-1.535,4.123-3.356A10.676,10.676,0,0,0,57.329,88.3c-1.753-.247-2.931-1.85-4.616-2.4A18.134,18.134,0,0,1,44.8,79.494c-1.478-2.342-4.095-8.163-2.328-10.958a11.985,11.985,0,0,1,4.917-4.711,29.311,29.311,0,0,1,3.26-1.548c.849-.274,4.15-.685,4.493-.808a33.316,33.316,0,0,0,5.095-2.452,12.394,12.394,0,0,1-2.095-1.151c-.11-.068-.22-.151-.357-.233l-.04.082a2.735,2.735,0,0,1-.9,1.179,2.8,2.8,0,0,1-2.849-.151,2.409,2.409,0,0,1-3.109-.534,1.545,1.545,0,0,1-.467-.781,1.373,1.373,0,0,1-.507.548c-.273.151-1.684.151-1.684,0-1.137,1.288-2.3-.521-3,.315-.972,1.164-3.109,1.616-4.2.247h-.054c-.48,0-.96.1-1.439.054a1.947,1.947,0,0,1-1.137-.383,4.383,4.383,0,0,1-7.218.1c-.863-1.232-2.767.808-4.4,1.027-2.041.274-3.918-1.041-5.863-.288a15.391,15.391,0,0,1-5.7.685c-1.63-.027-4.548-.177-5.178-2.081a4.38,4.38,0,0,1-.068-1.192,5.9,5.9,0,0,1,.575-3.52c.452-.7,1.328-.837,1.794-1.522a1.239,1.239,0,0,1,2.123,0c.548,1,1.781-1.588,1.863-1.286A5.675,5.675,0,0,1,15.99,48.7a3.37,3.37,0,0,1,1.15-2.849c.809-.946.878-2.37,2.138-3.109.986-.576,1.6-.467,2.493-1.342a3.214,3.214,0,0,1,.958-.617c-1.37-.89-3.218-3.9-2.822-5.52.837-3.328,2.85-3.384,5.836-4.4,1.218-.41,2.534-2.629,4.041-2.848a7.486,7.486,0,0,1-.453-1c-.561-1.48.946-2,.973-3.274.014-1.33.452-2.972,1.945-3.384,2.288-.63,1.89.521,3.369-2a2.5,2.5,0,0,1,1.357-1.1,4.961,4.961,0,0,1,2.493-.11c.821.26,1.355-.384,1.862-.959-1.6-1.246-2.342-3.424.041-4.615,1-.507,1.836-1.877,2.863-2.179,1.165-.328,3.877-.328,4.562-1.314,1.095-1.535,3.04-1.726,3.944-3.068.877-1.33,2.507-1.165,3.74-.617,1.822.822,3.6-.644,5.356.068,3.3,1.316,5.6-2.1,8.012,2.014,1.739,0,4.917,1.383,6.616.164.685-.493,1.822-.069,2.493.192,1.287.493,4.725,2.014,3.821,4.027-.466,1.014.589,2.493,1.7,3.671,1.658-.329,2.535.137,3.754,1.342a1.157,1.157,0,0,1,.329.658c1.314.7,2.479,1.849,2.081,2.958.193.315.411.767.521.918A4.024,4.024,0,0,1,92.01,22.4a2.241,2.241,0,0,1-1.794,2.315c-.713.11-1.713-.177-1.384.521a2.253,2.253,0,0,1,.042,1.945l-.042.123c.315.013.631.027.918.041.3,0,1.288-1,2.74-.863,1.245.124,2.767,1.877,3.958,1.589a3.631,3.631,0,0,1,2.123.178c1.986.849,1.575,2.15,2.383,3.767a22.681,22.681,0,0,0,3.069,3.822c.684.808,2.177,3.328.822,4.4a2.053,2.053,0,0,1-1.4.521c-1.63,0-2.259-.781-2.356.315a1.292,1.292,0,0,1-.9,1.191c-1.987.644-3.3-.931-5.288-.726-.548.055-3.534.4-3.739-.055a1.243,1.243,0,0,1-.192,1.494,7.671,7.671,0,0,1-1.288.822,4.168,4.168,0,0,1,1.781,2.615,2.514,2.514,0,0,1,3.192,1.548c1.781-.288,3.52,1.439,4.41.781a1.2,1.2,0,0,1,1.247,0c1.438.808,2.794.685,4.329,1.068a1.245,1.245,0,0,1,.9,1.192c.137,4.15,7.548,4.767,10.273,7.493,2.027,2.027,2.945,3.616,1.657,6.013a2.549,2.549,0,0,1-3.04,1.37,4.07,4.07,0,0,1-1.151.876,2.758,2.758,0,0,1-.876.26,6.3,6.3,0,0,1,1.137,2.328c.053.165.109,1.027-.275,1.027a13.318,13.318,0,0,1,2.15,1.275,3.22,3.22,0,0,1,1.425,2.3c.315,1.218-.753,3-1.287,4.041a1.245,1.245,0,0,1-1.384.575c-.342-.068-3.328-1.11-2.821-1.686a3.132,3.132,0,0,1-1.754,1.166c-1.48.533-3.479-1.864-4.931-.316a3.126,3.126,0,0,1-1.9.878c-1.713.026-5.452-.371-6.684-1.385.492.412-.412.069-1.207-.26-1.163,1.083-2.547,1.219-4.368.452-.782-.329-5.835-.383-5.835-.479-1.137,1.945-5.178.781-6.383-.508-1.48-1.616-3.411-.41-5.411-1.41-5.041-2.52,3.808-7.15,6.425-6.712q.307,1.44.328-.862c.014-.11.027-.219.041-.329a4.3,4.3,0,0,1,1.041-1.356A1.865,1.865,0,0,1,82.148,65.277Zm32.107-2.137c3.4,2.753.781-1.411.3-2.151-1.48-2.109-1.288-.849-2.452-1.452-1.11-.561-1.575-1.547-2.822-1.643-2.178-.192-4.232-2.836-5.849-4.1a2.048,2.048,0,0,1-.533-2.219c-.6.89-2.452.658-3.234-.2.385.425-2.081.41-2.081.41-.506-.15-2-2.191-2.657-1.327a1.231,1.231,0,0,1-2.288-.59c-.479-.219-.945-.37-1.411-.588a1.193,1.193,0,0,1-1.808-.6,12.039,12.039,0,0,0-.52-2.451c-.013.041,0,.1-.013.137a1.232,1.232,0,0,1-2.37,0,2.708,2.708,0,0,1-.027-.575c-.152.259-.452,1.068-.632,1.465-.2.452-.931.63-1.355.753-1.165.315-5.63-2.136-5.836-1.863a1.438,1.438,0,0,1-.931.589c-.026.165-.054.37-.109.658a1.2,1.2,0,0,1-.849.863c-2.26.863-5.465-1.109-5.822,1.9a1.262,1.262,0,0,1-.9,1.179c-.85.191-5.8-.617-3.4,2.219,1.643,1.945,1.89.6,3.424.2a1.261,1.261,0,0,1,1.2.316c1.219,1.287,6.616,2.095,8.383,1.739a1.2,1.2,0,0,1,1.356.644,4.489,4.489,0,0,0,1-.329,7.129,7.129,0,0,1,3.944-.836c2.329.507,3.918,2.274,6.164,3.082,1.069.384,2.452.781,3.1,1.808a7.4,7.4,0,0,1,.548.986,1.184,1.184,0,0,1,1.383.52A3.989,3.989,0,0,0,98.968,63.5a1.237,1.237,0,0,1,1.562-1.178c.6.151,6.26,2.136,6.56,1.918,1.137-.8,4.4-1.192,5.233.4A1.237,1.237,0,0,1,114.255,63.14Zm.082,11.217c.671-.616-2.343-1.725-2.644-1.793a1.2,1.2,0,0,1-.9-1.179c.151-3.095-1.37-3.793-4.15-4.493a1.84,1.84,0,0,0-.37-.026.646.646,0,0,1-.164-.014c-1.055.095-1.808,1.232-2.712,1.822a1.145,1.145,0,0,1-1.247-.028,1.26,1.26,0,0,1,.15,1.767,2.5,2.5,0,0,1-2.287,1.041c-3.684-.137-4.287-2.479-6.109-4.191a1.107,1.107,0,0,1-.7,0c-.918-.316-1.836-1.124-2.384-.4a1.273,1.273,0,0,1-1.383.562c-1.986-.439-2.835-1.055-4.533.054-1.111.712-2.946-.054-3.014,2.013a1.233,1.233,0,0,1-.9,1.192c-1.151.288-2.767-.4-3.712.369-.452.358-3.3,2-2.589,2,.74,0,8.4.329,7.931,2.138,1.3-5.056,8.848,2.533,10.875-.329a1.272,1.272,0,0,1,1.686-.439,1.86,1.86,0,0,1,.615.383,2.6,2.6,0,0,1,1.123.042c1.055.287,2.165.164,3.275.52,1.164.356,9.354-.164,9.889-.794a1.172,1.172,0,0,1,1.192-.314c1.452.423,2.109,2.177,2.465.9A1.758,1.758,0,0,1,114.337,74.357ZM101.229,38.005c5.286,1.794-.439-2.259-1.48-3.054-.74-.575-.794-1.562-1.273-2.082a1.836,1.836,0,0,1-.658-1.712c0-.041-2.7-.864-3.37-1.178-2.109-.972-1.534-1.219-3.04-.343-1.63.96-3.822.151-5.507,1.37-1.739,1.274-3.671-1.657-5.711-.014-1.494,1.178-2.479-.109-4.11,1.877-.055.054-.109.082-.151.124a16.958,16.958,0,0,1-.109,2.6,5.413,5.413,0,0,1-.164.794c.862-.165,1.876-1,2.63-1,.821,0,1.684.849,2.246,1.383a1.241,1.241,0,0,1,.191,1.493C79.805,39.7,89.6,44.95,88.394,41.06a1.251,1.251,0,0,1,.575-1.4c1.754-1.124,3.164-.315,5.069-.507a5.791,5.791,0,0,1,3.231.3c1.288.452,1.4,1.1,1.535-.095a1.25,1.25,0,0,1,.9-1.193A3.5,3.5,0,0,1,101.229,38.005Zm-1.111,29.888c-.109-.671,4.042-2.287,1.055-2.712a1.856,1.856,0,0,1-2.424.753,1.2,1.2,0,0,1-1.643-.013,2.371,2.371,0,0,0-.987-.548,2.582,2.582,0,0,1,.987,1.574C99.461,69.536,100.475,69.851,100.118,67.893ZM92.49,105.245c.383-.027,1.712-.534,2.04-.4a14.059,14.059,0,0,0-2.465-.766,1.4,1.4,0,0,1-.424,1.178C91.928,105.259,92.216,105.272,92.49,105.245Zm-3.4,10.15c1.191-.4,6.382-4.931,4.589-6.849a1.162,1.162,0,0,1-.343-.917c-.124.013-.247.041-.356.041-3.137.246-6.259.041-9.4.384a.934.934,0,0,1-.972-.452c-5.424.437-11.355.246-12.369.246H46.769a80.241,80.241,0,0,1-8.137,0,1.223,1.223,0,0,1-1.082.329c-2.4-.4-4.74-.645-7.164-.878h-.014a1.3,1.3,0,0,1-.562.371c-2.643.821.056,4.862.576,5.89,1.465,2.9,4.821,3.63,7.67,3.657,2.63.027,5.246.177,7.863.177,5.4,0,10.78.178,16.163.178,6.835,0,13.889.535,20.669-.465A39.21,39.21,0,0,0,89.093,115.4ZM93.27,63.852c.891-1.877-2.123-2.917-3.52-3.767-1.876-1.123-2.931-2.095-4.671-2.055a1.248,1.248,0,0,1-1.137,1.563c-.6.04-1.137,1.04-1.411,1.78a2.277,2.277,0,0,1,.356.466c.138.218.206,1.082.412,1.178.808.4,1.67.492,2.507.835.013,0,.013.014.013.014,1.424.055,3.122,1.465,3.561.726a1.2,1.2,0,0,1,1.055-.6c.192,0,.37.041.547.055a1.031,1.031,0,0,1,1.33-.535C92.585,63.605,92.914,63.729,93.27,63.852ZM89,22.377c.972-.042.137-.548-.219-1.137-.412-.685-.877-.835-.932-1.74a.952.952,0,0,1,.1-.479,2.055,2.055,0,0,1-.151-.164c-.136-.069-.26-.151-.4-.22a3.619,3.619,0,0,0-.712-.3,1.322,1.322,0,0,1-1.137-1.109,1.272,1.272,0,0,1-1.794.068l-.289-.247a1.06,1.06,0,0,1-.875.042,5.6,5.6,0,0,1-1.316-.644c-.534-.342-.369-.247-.89-.014a2.8,2.8,0,0,1-1.2.3c-.2,0-.411-.067-.6-.082a1.284,1.284,0,0,1-2.369-.575,1.689,1.689,0,0,1,1.246-1.794,4.57,4.57,0,0,1,.972-.123c.179,0,.945,0,.726.136a3.381,3.381,0,0,1,1.754-.6c-.26-1.014-1.521-2-.864-3.123,1-1.7-4.67-1.151-5.519-1.137-.8.014-6.835-.287-7.027.466a1.237,1.237,0,0,1-2.384-.658,4.2,4.2,0,0,1,1.37-2.3,8.118,8.118,0,0,0-2.767.9c-.821.343-5.163-.576-4.382-.726a34.258,34.258,0,0,1-4.89-.22,17.711,17.711,0,0,1-4.616,3.822,5.879,5.879,0,0,1-2.931.685,6.013,6.013,0,0,0-2.959,1.589c-.575.315-.507.822.123,1.507,2-.987,4.055-1.877,6.041-2.917,3.493-1.809,5.628,3.739,8.82.534a1.267,1.267,0,0,1,1.207-.316c.246.042.5.083.766.124a1.234,1.234,0,0,1,1.233,0c1.835,1.109.958,1.506,3,1.082,1-.219,2.122-.343,2.752.739.782,1.315,3.6,1.562,4.6,3.274a13.3,13.3,0,0,1,1.766,4.041c.741.616.932,1.137,1.357.233a1.576,1.576,0,0,1,1.493-.8c.766-.027,1.479.74,1.944,1.247.631.67,1.439,1.287,1.439,2.136v.069c.013-.11.027-.219.041-.329.247-1.383,2.493-1.041,2.424.329a2.617,2.617,0,0,1-.041.329,2.429,2.429,0,0,1-.014.712c1.549.37.891,2.739-.643,2.37a2.173,2.173,0,0,1-1.657-1.507c-1.59-.192-2.288-1.3-3.288-2.369-.027-.028-.027-.042-.054-.069a2.032,2.032,0,0,1-.137.205,2.213,2.213,0,0,1-1.357.7,3.3,3.3,0,0,1-2.054-.617,3.337,3.337,0,0,1-.931.781,3.29,3.29,0,0,1-1.535.356,2.922,2.922,0,0,1-.287.329,2.459,2.459,0,0,1-1.206.631c1.357.89,1.206.52,2.562.52,2.479,0,3.014,1.465,3.4,3.561,1.63-1.164,3.6-1.52,5.685-1.987,1.37-.3,2.424.343,3.657.275a1.145,1.145,0,0,1,.631-.439c1.232-.356.465-2.492.465-3.273a2.236,2.236,0,0,1,1.342-1.932A7.192,7.192,0,0,1,89,22.377Zm-3.863,81.855a10.273,10.273,0,0,0,3.384-.535c-.617-.068-1.206-.164-1.809-.246-.2-.014-.4-.014-.63-.028-5.534-.123-10.944-2.137-16.519-2.178-.054,0-.095-.026-.137-.026a5.593,5.593,0,0,1-2.547.329c-1.576,0-4.083,1.314-5.7.52-1.466-.74-4.383.055-6.082-.22a27.3,27.3,0,0,0-5.917.22,2.213,2.213,0,0,1-1.835-.7c-2.562-.026-4.931-.246-7.164.3a22.622,22.622,0,0,1-3.179.191c-1.533-.1-2.012.671-1.451,2.3,2.958.85,6.232.577,9.273.577,9.616,0,19.23-.179,28.846-.179C77.532,104.56,81.285,104.505,85.134,104.232ZM83.888,44.4a5.345,5.345,0,0,1-.918-.385c-.383-.2-3.068-1.725-1.725-2.04a1.859,1.859,0,0,1-1.6-.37,5.118,5.118,0,0,1-1.672-2.864A1.21,1.21,0,0,1,78,38.239c0,.013-.014.013-.014.027-.808,1.26-3,.945-4.177.246A8.171,8.171,0,0,0,71.793,39.9c-1.548,1.534-2.643,1.082-4.3.67-.753.946-1.4,1.3-3.054.672a8.825,8.825,0,0,0-.918-.287c.233,1.4.931,2.136,2.109,3.342.631.63.069.615.808-.07a2.744,2.744,0,0,1,1.014-.643,12.176,12.176,0,0,1,4.711-.424c1.412.15,3.343,1.232,2.521,2.9,1.178-.219,1.1-1.164,1.835-1.753a3,3,0,0,1,.411-.26,5.3,5.3,0,0,1,1.739-.411C80.4,43.512,82.217,45.375,83.888,44.4Zm-.7,75.746a1.949,1.949,0,0,0,.781-.864,79.18,79.18,0,0,1-7.876.864c.164.45.4,1.231.657,1.273a11.963,11.963,0,0,0,2.1.081C80.573,121.5,81.627,120.709,83.189,120.149ZM76.477,93.123a5.406,5.406,0,0,0,.411-2.452,4.645,4.645,0,0,1-5.383.713,3.125,3.125,0,0,0-.3.314c-.014.029-.014.014-.014.029A5.134,5.134,0,0,1,72,94.493a16.244,16.244,0,0,1-.6,3.233A11,11,0,0,0,75,94.9C75.463,94.232,76.108,93.9,76.477,93.123Zm-.041-6.451c-.013-.082-.013-.151-.027-.247-.329-1.959-2.575-2.809-4.054-3.711-2.808-1.7-7.274-.152-9.671-2.247-1.959-1.712-4.849-.534-7.177-.835a12.113,12.113,0,0,1-5.836-2.247,10.647,10.647,0,0,1-3.9-9.218c-2.438,3.014-.342,4.081.027,6.971.289,2.4,4.877,7.918,7.575,8.384,2.1.369,3.4,2.013,5.561,2.424,2.466.452,4,1.672,6.219,2.752,1.643.8,2.657.439,3.958,1.082-1.89-1.616-2.958-3.19-6.382-3.382-2.069-.123-4.384-2.33-6.288-3.164-1.465-.645-.205-2.767,1.233-2.138,4.493,1.96,9.315,2.755,12.834,6.274.822.808,4.288,2.151,5.52.9v-.013A1.19,1.19,0,0,1,76.436,86.672Zm-1.26-28.7a2.731,2.731,0,0,1-.315-.356c-.37-.6-3.794.384-4.835-1.206.493.754-2.315.672-3.671.192-.11,4.3-5.808,4.356-8.848,6.588-2.26,1.672-5.356,1.535-8.068,2.453a1.155,1.155,0,0,1-.22.534c-2.56,3.355.11,8.15,3.124,9.875,2.013,1.137,3.054.589,5.054.589.74,0,1.562.015,2.411.1C59,76.317,58.082,75.262,57.4,75.18a4.008,4.008,0,0,1-3.671-4.438c.261-2.193,2.151-3.178,3.821-4.151s4.809.74,5.973-1.137a2.433,2.433,0,0,1,1.685-1.067A17.026,17.026,0,0,0,72,61.99C73.436,61.03,74.108,59.209,75.176,57.976ZM73.505,34.238a6.931,6.931,0,0,0,.178-2.109v-.014c-.123-.382-.52.193-.945.439-2.754,1.616-6.081-2.589-8.767-2.219-1.862.261-6.286-2.082-6.587-.232-.247,1.574-1.782,3.067-.193,4.3a12.494,12.494,0,0,1,2.028,2.808,1.456,1.456,0,0,1,.589.247c1.343,1.054,2.739-.041,4.027.671,1.438.8,1.355,1.465,2.082.438a1.313,1.313,0,0,1,1.4-.562c.752.138,2.15.726,2.739.138.26-.247.63-.754,1.054-.823C72.532,37.06,73.259,35.677,73.505,34.238Zm-4.712,13.04c.726-1.26,2.328-1.466,3.795-1.41-1.439-.384-4.137-.343-4.877.616a2.039,2.039,0,0,1-2.7.548A7.857,7.857,0,0,1,61,40.43c-.082-.014-.151-.028-.218-.041a1.18,1.18,0,0,1-1.439.2c-.232-.123-.452-.26-.671-.4a1.145,1.145,0,0,1,.083.685c-.74,4.383,2.6,6.972,5.094,9.957a5.633,5.633,0,0,1,3.849-2.4c.329,0,.59.014.808.028A2.447,2.447,0,0,1,68.793,47.278Zm3.316-17.354a1.256,1.256,0,0,1,.793-.3c-.465-.63-1.191-.22-2.739-.521-1.4-.274-3.028-1.917-3.8-3.095-1.122-1.712-1.424-.179-2.972-.315-1.849-.151-6.3-3.808-7.039-1.589a1.238,1.238,0,0,1-1.507.863,3.79,3.79,0,0,0-2.439.123,16.971,16.971,0,0,1,2.63,3.274c.671-1.6,2.6-1.712,4.246-1.534.932.095,2.384.123,3.1.876.6.658,2.52-.206,3.369.027C67.492,28.212,70.327,31.363,72.109,29.924Zm-2.192-7.507c5.9-1.109-3.986-6-4.178-7.121.164.985-3.822.4-4.4-1.027.014.026.178.6-.849.259-.534-.177-.685.37-1.452.726-1.946.932-4.89.657-6.15-1.041-1.493-1.986-4.342,2.438-5.959,2.877a17.971,17.971,0,0,0-5.492,2.657c-1.274.74-2.767-.74-3.863,1.055-.589.972-.931,1.533-2.082,1.848-1.89.522-2.246.522-2.753,2.357-.4,1.479-2.383,2.246,1.014,3.068a1.062,1.062,0,0,1,.863,1.123,2.705,2.705,0,0,0,.328-.055,1.172,1.172,0,0,1,.891-1.068,10.9,10.9,0,0,0,3.478-1.246A1.18,1.18,0,0,1,41,27.376a11.865,11.865,0,0,1,8.178-3.137,1.084,1.084,0,0,1,.575-.67,8.29,8.29,0,0,1,4.794-1.178c1.11-1.507,3.151-1.6,5.219-.931,1.835.588,2.849,2.081,4.492,1.109a2.325,2.325,0,0,1,1.973.151,4.2,4.2,0,0,1,.945.547,1.453,1.453,0,0,1,.48.014h1.4A1.223,1.223,0,0,1,69.917,22.417ZM68.711,96.738c.891-3.176.137-4.122-1.685-4.765a5.273,5.273,0,0,1-.685,3.315,1.237,1.237,0,0,1-2.136-1.247,3.623,3.623,0,0,0,.356-2.287,1.077,1.077,0,0,1,.095-.521,7.754,7.754,0,0,1-1.328-.575,6.006,6.006,0,0,1,.1,1.519,6.629,6.629,0,0,1-1.246,3.576c-.822,1.082-1.6,2.151-2.507,3.165a3.656,3.656,0,0,1-.548.465,3.813,3.813,0,0,1,2.41.164c.878.438,4.11-.506,5.288-.466C68.766,99.151,68.328,98.081,68.711,96.738ZM63,56.744a1.687,1.687,0,0,0,.356-1.7C62.534,53.21,61.589,53,60.547,51.5a35.879,35.879,0,0,1-3.191-5.191,1.244,1.244,0,0,1-.684-.507,1.143,1.143,0,0,0-1.631.136c.027.316.069.618.109.932a2.216,2.216,0,0,1-.259,1.384,3.042,3.042,0,0,1-2.808,1.069A7.862,7.862,0,0,1,50.151,49a3.394,3.394,0,0,1-.41-.136c.013.041-.014.109-.247.232a5.764,5.764,0,0,1-1.74.26c-1,.151-.356.452.357.48a2.472,2.472,0,0,1,1.56.424c1.412.973,2.946,1.726,4.412,2.59a3.224,3.224,0,0,1,1.37,3.807.446.446,0,0,0,.149-.191,2.631,2.631,0,0,1,.48-.74,2.126,2.126,0,0,1,1.835-.63,4.012,4.012,0,0,1,1.727.821c.356.233.712.507,1.081.713.631.342.233.082.233.082A1.136,1.136,0,0,1,63,56.744ZM60.054,94.589c1.014-1.672.794-4.315.645-5.411-.3-.15-.6-.287-.918-.41-.219,2.219-1.055,4.958-2.686,6.314-1.164.972-2.45,1.466-3.67,2.328a21.3,21.3,0,0,0-2.684,2,24.827,24.827,0,0,1,3.834-.507,2.6,2.6,0,0,1,.48.055,1.264,1.264,0,0,1,.356-.356C57.26,97.369,58.835,96.589,60.054,94.589ZM56.466,40.005a.985.985,0,0,1,1.068-.643A19.134,19.134,0,0,1,53.767,34.5c-.534-.877-.123-2.3.356-3.589-.054-.042-.123-.055-.163-.1a13.14,13.14,0,0,1-2.59-2.821c-1.1-2.452-7.876-.206-9.342,1.89a1.249,1.249,0,0,1-1.945.246c1.055,1.247-2.465,1.466-4.437,1.521-.233,2.219-1.424,3.67-4.383,2.095-.754-.4-1.74-1.027-1.8-2a2.916,2.916,0,0,1-1.068.808c-1.287.657-5.506.945-5.944,2.685-.234.931,1.246,3.793,2.575,3.273a5.074,5.074,0,0,1,4.4.3c.562.328,8.807.2,9.122-.151a1.238,1.238,0,0,1,1.191-.315c1.535.3,2.685.958,3.411-.631.521-1.15,1.945-.588,2.192.4a5.984,5.984,0,0,1,2.725.781c1.178.671,2.164,1.876,3.494.8a4.43,4.43,0,0,1,1.314-.618A3.64,3.64,0,0,1,56.466,40.005Zm-.7,3.014a1.333,1.333,0,0,1-.247-.425c-.875-2.575-3.588.521-4.958.178-.671-.165-5.218-2.246-5.246-2.054a2.443,2.443,0,0,1-1.972,2.054,8.832,8.832,0,0,1-1.918.3c-.644.069-.465,1.165-.192,2.055A5.634,5.634,0,0,1,45.22,47.8c1-1.069,2.164-.424,3.342-1.109a2.819,2.819,0,0,1,1.973-.3c.233.069,2.205.877,2.082.315C52.042,44.333,53.863,43.019,55.767,43.019ZM50.48,54.73c2.219,1.548.192.411,1.958.411-1.794,0-3.492-3.439-4.971-3.247-3.589.452-3.493-3-6.068-4.109a1.34,1.34,0,0,1-1.083.275,1.007,1.007,0,0,1-1.054.191,7.913,7.913,0,0,1-3.451-1.685c-.919-1-1.864-.178-2.836-.657-1.15-.575-1.37-.672-1.808-1.809a.332.332,0,0,0-.246-.438,1.232,1.232,0,0,1-1.713.561c-1.507-.793-4.534-3.56-6.014-.588-.561,1.1-.78,1.246-2.026,1.452-.63.1-2.548,4.082-2.479,4.588.424,2.9-3.109,5.315-5.356,4.233a2.89,2.89,0,0,1-.4.206c-.657.191-.138,2.15-.534,2.821a37.589,37.589,0,0,0,5.78.22c1.712-.124,2.328-1.179,3.945-1.219,2.575-.07,5.136.9,7.341-1.178a2.379,2.379,0,0,1,2.124-.316c1.4.383,3.89,5.945,5.095,1.712a1.234,1.234,0,0,1,1.521-.863c.533.219,1.985,1.26,2.41.959a1.265,1.265,0,0,1,1.247,0c1.342.643,1.437.11,2.507-1.014a1.242,1.242,0,0,1,1.492-.191c.383.219.643.671,1.082.753.151.028.261-.165.4-.137a1.377,1.377,0,0,1,.7.547C48.576,55.524,49.261,53.867,50.48,54.73Zm-3.562,65.678a4.535,4.535,0,0,1,.4-.562c-1.521,0-3.041-.013-4.561-.068-.6-.014-1.192-.027-1.794-.055.273.233.547.452.821.7.631.561.083.712,1.343.739.643.028,1.287,0,1.945,0C46.371,121.161,46.33,121.38,46.918,120.408ZM38.55,45.142c-.384-1.4-.466-2.959.4-3.781-1.081.411-2.245,1.041-3.574.439a3.043,3.043,0,0,0-2.548.041,1.626,1.626,0,0,1,.8,1.383C33.632,42.731,36.7,44.2,38.55,45.142ZM32.016,30.088c.671,1.288,1.261,2.425,1.2.37-.041-.013-.082,0-.123-.013A7.075,7.075,0,0,1,32.016,30.088Zm.494,74.9a3.654,3.654,0,0,1-.659-2.6c-.164.055-.342.1-.492.151-.412.123-.809.246-1.22.356-.767.069-1.123.562-1.054,1.493a3.865,3.865,0,0,0,1.822.507C31.44,104.9,31.975,104.943,32.51,104.985Z"/></g></svg>